<svg id="e3XoBfmcdSK1" xmlns="http://www.w3.org/2000/svg" xmlns:xlink="http://www.w3.org/1999/xlink" viewBox="0 0 800 300" shape-rendering="geometricPrecision" text-rendering="geometricPrecision"><path d="M637.40206,181.75998c12.3967-30.99175,49.13672-100.44544-5.06601-105.37296-45.90794-4.17345-96.63604,62.00537-89.16174,104.35976c3.06661,17.37745,33.05471,4.17451,31.40925-4.05281-1.17967-5.89833-20.75184-12.93177-21.27723-13.17162-10.64578-4.86003-49.8451-27.07451-66.8713-20.26403-22.31301,8.9252-54.14263,84.72463,40.52806,45.59407c12.00759-4.96314,23.16787-11.79135,34.44885-18.23763c1.85458-1.05976-4.09597,1.23311-6.07921,2.0264-14.57716,5.83087-29.44276,11.03504-44.58087,15.19802-27.40026,7.53507-58.91768,32.42245-87.13533,32.42245-26.31654,0-28.51795-36.82939-20.26403-54.71288.94941-2.05706,4.85208-4.71986,3.0396-6.07921-2.05768-1.54326-4.55373,2.62633-7.09241,3.03961-12.0743,1.96558-24.27424,3.16546-36.47526,4.05281-30.31617,2.20481-144.92241-40.76659-150.96703,6.07921-6.9541,53.89424,74.54031,85.13302,111.45217,56.73929c46.44505-35.72696,38.92356-103.41217,26.34324-152.99344-.51488-2.02924-22.38973-77.67381-23.30364-78.01652-4.94593-1.85472-12.30155,16.80823-13.17162,18.23763-12.3785,20.33611-24.76686,40.66883-37.48846,60.79209-10.28941,16.27598-15.04543,26.97436-29.38285,37.48846-14.48781,10.62439-34.4351,17.48836-43.56767,34.44885-14.27084,26.50298,21.61147,49.47976-3.0396,61.8053-12.95032,6.47516-118.96228,11.42745-126.6502-2.0264-16.39366-28.68891,85.15688-58.95747,86.12213-62.8185c5.15549-20.62197-85.75183-20.98021-50.66008-64.8449c7.54827-9.43534,20.91748-12.51827,32.42245-16.21123c19.63507-6.30262,92.43316-23.78288,97.26735-19.25083c7.40596,6.94309,2.79831,53.89252,8.10561,67.8845c10.92972,28.81473,34.30123,34.79312,62.8185,43.56767c14.95364,4.60112,30.99141,16.76162,45.59407,11.14522c2.5414-.97746-.25931-5.48916-1.0132-8.10561-4.99813-17.34647-8.41638-35.39072-16.21123-51.67328-7.5636-15.79951-18.1219-30.15037-29.38285-43.56767C279.10749,30.68381,205.5302,32.81606,169.3029,55.10978c-29.7614,18.31471-50.16575,84.9518-30.39605,115.50498c4.03626,6.23786,49.00847,39.34808,47.62047,45.59407-1.30608,5.87736-64.68169,36.83481-78.01652,38.50166-44.80748,5.60093-8.11809-110.49602-15.19802-142.86142-.50521-2.30953-4.81158.62205-7.09241,0C68.2793,106.95605,27.84076,78.5094,32.52069,55.10978" transform="translate(.000001 0)" fill="none" stroke="#3f5787" stroke-width="1.6"/></svg>
